<?xml version="1.0" encoding="UTF-8" standalone="no"?>
<!DOCTYPE svg PUBLIC "-//W3C//DTD SVG 1.1//EN"
 "http://www.w3.org/Graphics/SVG/1.1/DTD/svg11.dtd">
<!-- Generated by graphviz version 14.1.2 (0)
 -->
<!-- Title: RosGzSystemGraph Pages: 1 -->
<svg width="1485pt" height="992pt"
 viewBox="0.00 0.00 1485.00 992.00" xmlns="http://www.w3.org/2000/svg" xmlns:xlink="http://www.w3.org/1999/xlink">
<style id="ros-gz-system-graph-hover-style" type="text/css"><![CDATA[
g.edge path,
g.edge polygon {
  cursor: help;
  pointer-events: visiblePainted;
  transition: stroke 120ms ease, fill 120ms ease, stroke-width 120ms ease, filter 120ms ease;
}

g.edge:hover path {
  stroke: #ff6d00 !important;
  stroke-width: 4px !important;
  filter: drop-shadow(0 0 4px rgba(255, 109, 0, 0.85));
}

g.edge:hover polygon {
  stroke: #ff6d00 !important;
  fill: #ff6d00 !important;
  filter: drop-shadow(0 0 4px rgba(255, 109, 0, 0.85));
}
]]></style>
<g id="graph0" class="graph" transform="scale(1 1) rotate(0) translate(14.4 977.35)">
<title>RosGzSystemGraph</title>
<polygon fill="white" stroke="none" points="-14.4,14.4 -14.4,-977.35 1471.02,-977.35 1471.02,14.4 -14.4,14.4"/>
<text xml:space="preserve" text-anchor="start" x="539.31" y="-940.85" font-family="DejaVu Sans" font-weight="bold" font-size="18.00">LIDAR Mapping Drone Runtime Graph</text>
<text xml:space="preserve" text-anchor="start" x="606.43" y="-917.9" font-family="DejaVu Sans" font-size="14.00">Gazebo + ROS 2 Presentation View</text>
<polygon fill="#ffd166" stroke="none" points="539.31,-885.2 539.31,-909.95 633.25,-909.95 633.25,-885.2 539.31,-885.2"/>
<polygon fill="none" stroke="black" points="539.31,-885.2 539.31,-909.95 633.25,-909.95 633.25,-885.2 539.31,-885.2"/>
<text xml:space="preserve" text-anchor="start" x="565.65" y="-894.45" font-family="DejaVu Sans" font-size="10.00">GZ topic</text>
<polygon fill="#d0b3ff" stroke="none" points="633.25,-885.2 633.25,-909.95 717.43,-909.95 717.43,-885.2 633.25,-885.2"/>
<polygon fill="none" stroke="black" points="633.25,-885.2 633.25,-909.95 717.43,-909.95 717.43,-885.2 633.25,-885.2"/>
<text xml:space="preserve" text-anchor="start" x="659.59" y="-894.45" font-family="DejaVu Sans" font-size="10.00">Bridge</text>
<polygon fill="#b7e4c7" stroke="none" points="717.43,-885.2 717.43,-909.95 817.37,-909.95 817.37,-885.2 717.43,-885.2"/>
<polygon fill="none" stroke="black" points="717.43,-885.2 717.43,-909.95 817.37,-909.95 817.37,-885.2 717.43,-885.2"/>
<text xml:space="preserve" text-anchor="start" x="743.78" y="-894.45" font-family="DejaVu Sans" font-size="10.00">ROS topic</text>
<polygon fill="#90caf9" stroke="none" points="817.37,-885.2 817.37,-909.95 917.31,-909.95 917.31,-885.2 817.37,-885.2"/>
<polygon fill="none" stroke="black" points="817.37,-885.2 817.37,-909.95 917.31,-909.95 917.31,-885.2 817.37,-885.2"/>
<text xml:space="preserve" text-anchor="start" x="843.71" y="-894.45" font-family="DejaVu Sans" font-size="10.00">ROS node</text>
<!-- gz_topic_lidar2 -->
<g id="node1" class="node">
<title>gz_topic_lidar2</title>
<ellipse fill="#ffd166" stroke="#cc7a00" cx="164.76" cy="-713.6" rx="75.66" ry="39.6"/>
<text xml:space="preserve" text-anchor="start" x="145.26" y="-726.15" font-family="DejaVu Sans" font-weight="bold" font-size="11.00">/lidar2</text>
<text xml:space="preserve" text-anchor="start" x="121.26" y="-709.55" font-family="DejaVu Sans" font-size="9.00">gz.msgs.LaserScan</text>
<text xml:space="preserve" text-anchor="start" x="129.51" y="-694.3" font-family="DejaVu Sans" font-size="9.00" fill="#2a9d8f">sensor data out</text>
</g>
<!-- bridge_ros_gz_bridge -->
<g id="node4" class="node">
<title>bridge_ros_gz_bridge</title>
<polygon fill="#d0b3ff" stroke="#6a00a8" points="591.51,-756.85 412.51,-756.85 412.51,-670.35 591.51,-670.35 591.51,-756.85"/>
<text xml:space="preserve" text-anchor="start" x="429.64" y="-741.4" font-family="DejaVu Sans" font-weight="bold" font-size="11.00">ROS &lt;&#45;&gt; Gazebo Bridge</text>
<text xml:space="preserve" text-anchor="start" x="422.51" y="-724.8" font-family="DejaVu Sans" font-size="9.00">LaserScan + TF + Motor Command</text>
<text xml:space="preserve" text-anchor="start" x="461.14" y="-709.55" font-family="DejaVu Sans" font-size="9.00" fill="#2a9d8f">sensor data in/out</text>
<text xml:space="preserve" text-anchor="start" x="454.76" y="-694.3" font-family="DejaVu Sans" font-size="9.00" fill="#d62828">pose feedback in/out</text>
<text xml:space="preserve" text-anchor="start" x="449.51" y="-679.05" font-family="DejaVu Sans" font-size="9.00" fill="#d97706">motor command in/out</text>
</g>
<!-- gz_topic_lidar2&#45;&gt;bridge_ros_gz_bridge -->
<!-- gz_topic_lidar2&#45;&gt;bridge_ros_gz_bridge -->
<g id="edge4" class="edge">
<title>gz_topic_lidar2&#45;&gt;bridge_ros_gz_bridge</title>
<g id="a_edge4"><a xlink:title="/lidar2 &#45;&gt; ROS &lt;&#45;&gt; Gazebo Bridge&#10;Signal: sensor data">
<path fill="none" stroke="#2a9d8f" stroke-width="2" d="M239.19,-721.52C239.19,-721.52 401.16,-721.52 401.16,-721.52"/>
<polygon fill="#2a9d8f" stroke="#2a9d8f" stroke-width="2" points="401.16,-724.32 409.16,-721.52 401.16,-718.72 401.16,-724.32"/>
</a>
</g>
</g>
<!-- gz_topic_model_x3_lidar_pose -->
<g id="node2" class="node">
<title>gz_topic_model_x3_lidar_pose</title>
<ellipse fill="#ffd166" stroke="#cc7a00" cx="164.76" cy="-839.6" rx="102.71" ry="39.6"/>
<text xml:space="preserve" text-anchor="start" x="102.13" y="-852.15" font-family="DejaVu Sans" font-weight="bold" font-size="11.00">/model/x3_lidar/pose</text>
<text xml:space="preserve" text-anchor="start" x="129.13" y="-835.55" font-family="DejaVu Sans" font-size="9.00">gz.msgs.Pose_V</text>
<text xml:space="preserve" text-anchor="start" x="123.13" y="-820.3" font-family="DejaVu Sans" font-size="9.00" fill="#d62828">pose feedback out</text>
</g>
<!-- gz_topic_model_x3_lidar_pose&#45;&gt;bridge_ros_gz_bridge -->
<g id="edge6" class="edge">
<title>gz_topic_model_x3_lidar_pose&#45;&gt;bridge_ros_gz_bridge</title>
<g id="a_edge6"><a xlink:title="/model/x3_lidar/pose &#45;&gt; ROS &lt;&#45;&gt; Gazebo Bridge&#10;Signal: pose feedback">
<path fill="none" stroke="#d62828" stroke-width="2.6" d="M253.62,-819.4C253.62,-789.6 253.62,-737.36 253.62,-737.36 253.62,-737.36 400.4,-737.36 400.4,-737.36"/>
<polygon fill="#d62828" stroke="#d62828" stroke-width="2.6" points="400.4,-740.16 408.4,-737.36 400.4,-734.56 400.4,-740.16"/>
</a>
</g>
</g>
<!-- gz_topic_X3_gazebo_command_motor_speed -->
<g id="node3" class="node">
<title>gz_topic_X3_gazebo_command_motor_speed</title>
<ellipse fill="#ffd166" stroke="#cc7a00" cx="164.76" cy="-587.6" rx="164.76" ry="39.6"/>
<text xml:space="preserve" text-anchor="start" x="58.26" y="-600.15" font-family="DejaVu Sans" font-weight="bold" font-size="11.00">/X3/gazebo/command/motor_speed</text>
<text xml:space="preserve" text-anchor="start" x="122.76" y="-583.55" font-family="DejaVu Sans" font-size="9.00">gz.msgs.Actuators</text>
<text xml:space="preserve" text-anchor="start" x="121.26" y="-568.3" font-family="DejaVu Sans" font-size="9.00" fill="#d97706">motor command in</text>
</g>
<!-- bridge_ros_gz_bridge&#45;&gt;gz_topic_X3_gazebo_command_motor_speed -->
<g id="edge9" class="edge">
<title>bridge_ros_gz_bridge&#45;&gt;gz_topic_X3_gazebo_command_motor_speed</title>
<g id="a_edge9"><a xlink:title="ROS &lt;&#45;&gt; Gazebo Bridge &#45;&gt; /X3/gazebo/command/motor_speed&#10;Signal: motor command">
<path fill="none" stroke="#d97706" stroke-width="2.6" d="M412.21,-689.84C357.72,-689.84 298.62,-689.84 298.62,-689.84 298.62,-689.84 298.62,-622.99 298.62,-622.99"/>
<polygon fill="#d97706" stroke="#d97706" stroke-width="2.6" points="301.42,-622.99 298.62,-614.99 295.82,-622.99 301.42,-622.99"/>
</a>
</g>
</g>
<!-- ros_topic_laser_scan -->
<g id="node5" class="node">
<title>ros_topic_laser_scan</title>
<ellipse fill="#b7e4c7" stroke="#2d6a4f" cx="866.31" cy="-713.6" rx="105.89" ry="39.6"/>
<text xml:space="preserve" text-anchor="start" x="832.19" y="-726.15" font-family="DejaVu Sans" font-weight="bold" font-size="11.00">/laser_scan</text>
<text xml:space="preserve" text-anchor="start" x="801.44" y="-709.55" font-family="DejaVu Sans" font-size="9.00">sensor_msgs/msg/LaserScan</text>
<text xml:space="preserve" text-anchor="start" x="825.44" y="-694.3" font-family="DejaVu Sans" font-size="9.00" fill="#2a9d8f">sensor data in/out</text>
</g>
<!-- bridge_ros_gz_bridge&#45;&gt;ros_topic_laser_scan -->
<!-- bridge_ros_gz_bridge&#45;&gt;ros_topic_laser_scan -->
<g id="edge5" class="edge">
<title>bridge_ros_gz_bridge&#45;&gt;ros_topic_laser_scan</title>
<g id="a_edge5"><a xlink:title="ROS &lt;&#45;&gt; Gazebo Bridge &#45;&gt; /laser_scan&#10;Signal: sensor data">
<path fill="none" stroke="#2a9d8f" stroke-width="2" d="M591.6,-726.8C591.6,-726.8 755.13,-726.8 755.13,-726.8"/>
<polygon fill="#2a9d8f" stroke="#2a9d8f" stroke-width="2" points="755.13,-729.6 763.13,-726.8 755.13,-724 755.13,-729.6"/>
</a>
</g>
</g>
<!-- ros_topic_tf -->
<g id="node6" class="node">
<title>ros_topic_tf</title>
<ellipse fill="#b7e4c7" stroke="#2d6a4f" cx="866.31" cy="-428.6" rx="95.81" ry="50.38"/>
<text xml:space="preserve" text-anchor="start" x="859.56" y="-448.77" font-family="DejaVu Sans" font-weight="bold" font-size="11.00">/tf</text>
<text xml:space="preserve" text-anchor="start" x="820.94" y="-432.17" font-family="DejaVu Sans" font-size="9.00">dynamic transforms</text>
<text xml:space="preserve" text-anchor="start" x="808.56" y="-416.92" font-family="DejaVu Sans" font-size="9.00">tf2_msgs/msg/TFMessage</text>
<text xml:space="preserve" text-anchor="start" x="819.06" y="-401.67" font-family="DejaVu Sans" font-size="9.00" fill="#d62828">pose feedback in/out</text>
</g>
<!-- bridge_ros_gz_bridge&#45;&gt;ros_topic_tf -->
<g id="edge7" class="edge">
<title>bridge_ros_gz_bridge&#45;&gt;ros_topic_tf</title>
<g id="a_edge7"><a xlink:title="ROS &lt;&#45;&gt; Gazebo Bridge &#45;&gt; /tf&#10;Signal: pose feedback">
<path fill="none" stroke="#d62828" stroke-width="2.6" d="M531.62,-670C531.62,-590.17 531.62,-428.6 531.62,-428.6 531.62,-428.6 758.47,-428.6 758.47,-428.6"/>
<polygon fill="#d62828" stroke="#d62828" stroke-width="2.6" points="758.47,-431.4 766.47,-428.6 758.47,-425.8 758.47,-431.4"/>
</a>
</g>
</g>
<!-- ros_node_rviz -->
<g id="node13" class="node">
<title>ros_node_rviz</title>
<polygon fill="#90caf9" stroke="#1565c0" points="1348.99,-741.6 1248.74,-741.6 1248.74,-685.6 1348.99,-685.6 1348.99,-741.6"/>
<text xml:space="preserve" text-anchor="start" x="1285.37" y="-726.15" font-family="DejaVu Sans" font-weight="bold" font-size="11.00">/rviz</text>
<text xml:space="preserve" text-anchor="start" x="1258.74" y="-709.55" font-family="DejaVu Sans" font-size="9.00">visualization node</text>
<text xml:space="preserve" text-anchor="start" x="1266.99" y="-694.3" font-family="DejaVu Sans" font-size="9.00" fill="#2a9d8f">sensor data in</text>
</g>
<!-- ros_topic_laser_scan&#45;&gt;ros_node_rviz -->
<!-- ros_topic_laser_scan&#45;&gt;ros_node_rviz -->
<g id="edge16" class="edge">
<title>ros_topic_laser_scan&#45;&gt;ros_node_rviz</title>
<g id="a_edge16"><a xlink:title="/laser_scan &#45;&gt; /rviz&#10;Signal: sensor data">
<path fill="none" stroke="#2a9d8f" stroke-width="2" d="M965.82,-727.6C965.82,-727.6 1237.5,-727.6 1237.5,-727.6"/>
<polygon fill="#2a9d8f" stroke="#2a9d8f" stroke-width="2" points="1237.5,-730.4 1245.5,-727.6 1237.5,-724.8 1237.5,-730.4"/>
</a>
</g>
</g>
<!-- ros_node_flight_controller -->
<g id="node11" class="node">
<title>ros_node_flight_controller</title>
<polygon fill="#90caf9" stroke="#1565c0" points="1359.49,-350.47 1238.24,-350.47 1238.24,-248.72 1359.49,-248.72 1359.49,-350.47"/>
<text xml:space="preserve" text-anchor="start" x="1248.24" y="-335.02" font-family="DejaVu Sans" font-weight="bold" font-size="11.00">/flight_controller</text>
<text xml:space="preserve" text-anchor="start" x="1270.37" y="-318.42" font-family="DejaVu Sans" font-size="9.00">control node</text>
<text xml:space="preserve" text-anchor="start" x="1251.99" y="-303.17" font-family="DejaVu Sans" font-size="9.00" fill="#d97706">motor command out</text>
<text xml:space="preserve" text-anchor="start" x="1256.49" y="-287.92" font-family="DejaVu Sans" font-size="9.00" fill="#6c757d">emergency stop in</text>
<text xml:space="preserve" text-anchor="start" x="1253.49" y="-272.67" font-family="DejaVu Sans" font-size="9.00" fill="#6c757d">manual reference in</text>
<text xml:space="preserve" text-anchor="start" x="1260.62" y="-257.42" font-family="DejaVu Sans" font-size="9.00" fill="#d62828">pose feedback in</text>
</g>
<!-- ros_topic_tf&#45;&gt;ros_node_flight_controller -->
<g id="edge13" class="edge">
<title>ros_topic_tf&#45;&gt;ros_node_flight_controller</title>
<g id="a_edge13"><a xlink:title="/tf &#45;&gt; /flight_controller&#10;Signal: pose feedback">
<path fill="none" stroke="#d62828" stroke-width="2.6" d="M866.62,-377.8C866.62,-358.39 866.62,-340.83 866.62,-340.83 866.62,-340.83 1225.92,-340.83 1225.92,-340.83"/>
<polygon fill="#d62828" stroke="#d62828" stroke-width="2.6" points="1225.92,-343.63 1233.92,-340.83 1225.92,-338.03 1225.92,-343.63"/>
</a>
</g>
</g>
<!-- ros_topic_tf&#45;&gt;ros_node_rviz -->
<g id="edge18" class="edge">
<title>ros_topic_tf&#45;&gt;ros_node_rviz</title>
<g id="a_edge18"><a xlink:title="/tf &#45;&gt; /rviz&#10;Signal: pose feedback">
<path fill="none" stroke="#d62828" stroke-width="2.6" d="M962.5,-428.6C1021.43,-428.6 1085.62,-428.6 1085.62,-428.6 1085.62,-428.6 1085.62,-699.6 1085.62,-699.6 1085.62,-699.6 1236.39,-699.6 1236.39,-699.6"/>
<polygon fill="#d62828" stroke="#d62828" stroke-width="2.6" points="1236.39,-702.4 1244.39,-699.6 1236.39,-696.8 1236.39,-702.4"/>
</a>
</g>
</g>
<!-- ros_topic_tf_static -->
<g id="node7" class="node">
<title>ros_topic_tf_static</title>
<ellipse fill="#b7e4c7" stroke="#2d6a4f" cx="866.31" cy="-576.6" rx="95.81" ry="50.38"/>
<text xml:space="preserve" text-anchor="start" x="839.31" y="-596.77" font-family="DejaVu Sans" font-weight="bold" font-size="11.00">/tf_static</text>
<text xml:space="preserve" text-anchor="start" x="828.06" y="-580.17" font-family="DejaVu Sans" font-size="9.00">static transforms</text>
<text xml:space="preserve" text-anchor="start" x="808.56" y="-564.92" font-family="DejaVu Sans" font-size="9.00">tf2_msgs/msg/TFMessage</text>
<text xml:space="preserve" text-anchor="start" x="822.44" y="-549.67" font-family="DejaVu Sans" font-size="9.00" fill="#6c757d">static transforms in</text>
</g>
<!-- ros_topic_tf_static&#45;&gt;ros_node_rviz -->
<g id="edge19" class="edge">
<title>ros_topic_tf_static&#45;&gt;ros_node_rviz</title>
<g id="a_edge19"><a xlink:title="/tf_static &#45;&gt; /rviz&#10;Signal: static transforms">
<path fill="none" stroke="#6c757d" stroke-width="1.8" d="M927.34,-615.79C1046.5,-615.79 1298.62,-615.79 1298.62,-615.79 1298.62,-615.79 1298.62,-674.58 1298.62,-674.58"/>
<polygon fill="#6c757d" stroke="#6c757d" stroke-width="1.8" points="1295.82,-674.58 1298.62,-682.58 1301.42,-674.58 1295.82,-674.58"/>
</a>
</g>
</g>
<!-- ros_topic_flight_controller_manual_reference_delta -->
<g id="node8" class="node">
<title>ros_topic_flight_controller_manual_reference_delta</title>
<ellipse fill="#b7e4c7" stroke="#2d6a4f" cx="866.31" cy="-291.6" rx="191.8" ry="39.6"/>
<text xml:space="preserve" text-anchor="start" x="740.69" y="-304.15" font-family="DejaVu Sans" font-weight="bold" font-size="11.00">/flight_controller/manual_reference_delta</text>
<text xml:space="preserve" text-anchor="start" x="806.69" y="-287.55" font-family="DejaVu Sans" font-size="9.00">geometry_msgs/msg/Twist</text>
<text xml:space="preserve" text-anchor="start" x="811.94" y="-272.3" font-family="DejaVu Sans" font-size="9.00" fill="#6c757d">manual reference in/out</text>
</g>
<!-- ros_topic_flight_controller_manual_reference_delta&#45;&gt;ros_node_flight_controller -->
<g id="edge12" class="edge">
<title>ros_topic_flight_controller_manual_reference_delta&#45;&gt;ros_node_flight_controller</title>
<g id="a_edge12"><a xlink:title="/flight_controller/manual_reference_delta &#45;&gt; /flight_controller&#10;Signal: manual reference">
<path fill="none" stroke="#6c757d" stroke-width="1.8" d="M1033.24,-311.4C1033.24,-311.4 1227.26,-311.4 1227.26,-311.4"/>
<polygon fill="#6c757d" stroke="#6c757d" stroke-width="1.8" points="1227.26,-314.2 1235.26,-311.4 1227.26,-308.6 1227.26,-314.2"/>
</a>
</g>
</g>
<!-- ros_topic_flight_controller_emergency_stop -->
<g id="node9" class="node">
<title>ros_topic_flight_controller_emergency_stop</title>
<ellipse fill="#b7e4c7" stroke="#2d6a4f" cx="866.31" cy="-165.6" rx="159.45" ry="39.6"/>
<text xml:space="preserve" text-anchor="start" x="763.56" y="-178.15" font-family="DejaVu Sans" font-weight="bold" font-size="11.00">/flight_controller/emergency_stop</text>
<text xml:space="preserve" text-anchor="start" x="822.81" y="-161.55" font-family="DejaVu Sans" font-size="9.00">std_msgs/msg/Bool</text>
<text xml:space="preserve" text-anchor="start" x="814.94" y="-146.3" font-family="DejaVu Sans" font-size="9.00" fill="#6c757d">emergency stop in/out</text>
</g>
<!-- ros_topic_flight_controller_emergency_stop&#45;&gt;ros_node_flight_controller -->
<g id="edge11" class="edge">
<title>ros_topic_flight_controller_emergency_stop&#45;&gt;ros_node_flight_controller</title>
<g id="a_edge11"><a xlink:title="/flight_controller/emergency_stop &#45;&gt; /flight_controller&#10;Signal: emergency stop">
<path fill="none" stroke="#6c757d" stroke-width="1.8" d="M1026.08,-165.6C1073.78,-165.6 1113.62,-165.6 1113.62,-165.6 1113.62,-165.6 1113.62,-291.6 1113.62,-291.6 1113.62,-291.6 1227.23,-291.6 1227.23,-291.6"/>
<polygon fill="#6c757d" stroke="#6c757d" stroke-width="1.8" points="1227.23,-294.4 1235.23,-291.6 1227.23,-288.8 1227.23,-294.4"/>
</a>
</g>
</g>
<!-- ros_topic_X3_gazebo_command_motor_speed -->
<g id="node10" class="node">
<title>ros_topic_X3_gazebo_command_motor_speed</title>
<ellipse fill="#b7e4c7" stroke="#2d6a4f" cx="866.31" cy="-39.6" rx="164.76" ry="39.6"/>
<text xml:space="preserve" text-anchor="start" x="759.81" y="-52.15" font-family="DejaVu Sans" font-weight="bold" font-size="11.00">/X3/gazebo/command/motor_speed</text>
<text xml:space="preserve" text-anchor="start" x="798.44" y="-35.55" font-family="DejaVu Sans" font-size="9.00">actuator_msgs/msg/Actuators</text>
<text xml:space="preserve" text-anchor="start" x="813.81" y="-20.3" font-family="DejaVu Sans" font-size="9.00" fill="#d97706">motor command in/out</text>
</g>
<!-- ros_topic_X3_gazebo_command_motor_speed&#45;&gt;bridge_ros_gz_bridge -->
<g id="edge8" class="edge">
<title>ros_topic_X3_gazebo_command_motor_speed&#45;&gt;bridge_ros_gz_bridge</title>
<g id="a_edge8"><a xlink:title="/X3/gazebo/command/motor_speed &#45;&gt; ROS &lt;&#45;&gt; Gazebo Bridge&#10;Signal: motor command">
<path fill="none" stroke="#d97706" stroke-width="2.6" d="M701.06,-39.6C593.32,-39.6 472.62,-39.6 472.62,-39.6 472.62,-39.6 472.62,-657.96 472.62,-657.96"/>
<polygon fill="#d97706" stroke="#d97706" stroke-width="2.6" points="469.82,-657.96 472.62,-665.96 475.42,-657.96 469.82,-657.96"/>
</a>
</g>
</g>
<!-- ros_node_flight_controller&#45;&gt;ros_topic_X3_gazebo_command_motor_speed -->
<g id="edge10" class="edge">
<title>ros_node_flight_controller&#45;&gt;ros_topic_X3_gazebo_command_motor_speed</title>
<g id="a_edge10"><a xlink:title="/flight_controller &#45;&gt; /X3/gazebo/command/motor_speed&#10;Signal: motor command">
<path fill="none" stroke="#d97706" stroke-width="2.6" d="M1238.03,-271.8C1212.06,-271.8 1187.62,-271.8 1187.62,-271.8 1187.62,-271.8 1187.62,-39.6 1187.62,-39.6 1187.62,-39.6 1043.14,-39.6 1043.14,-39.6"/>
<polygon fill="#d97706" stroke="#d97706" stroke-width="2.6" points="1043.14,-36.8 1035.14,-39.6 1043.14,-42.4 1043.14,-36.8"/>
</a>
</g>
</g>
<!-- ros_node_keyboard_control -->
<g id="node12" class="node">
<title>ros_node_keyboard_control</title>
<polygon fill="#90caf9" stroke="#1565c0" points="1363.62,-201.22 1234.12,-201.22 1234.12,-129.97 1363.62,-129.97 1363.62,-201.22"/>
<text xml:space="preserve" text-anchor="start" x="1244.12" y="-185.77" font-family="DejaVu Sans" font-weight="bold" font-size="11.00">/keyboard_control</text>
<text xml:space="preserve" text-anchor="start" x="1255.74" y="-169.17" font-family="DejaVu Sans" font-size="9.00">manual input node</text>
<text xml:space="preserve" text-anchor="start" x="1253.12" y="-153.92" font-family="DejaVu Sans" font-size="9.00" fill="#6c757d">emergency stop out</text>
<text xml:space="preserve" text-anchor="start" x="1250.12" y="-138.67" font-family="DejaVu Sans" font-size="9.00" fill="#6c757d">manual reference out</text>
</g>
<!-- ros_node_keyboard_control&#45;&gt;ros_topic_flight_controller_manual_reference_delta -->
<g id="edge15" class="edge">
<title>ros_node_keyboard_control&#45;&gt;ros_topic_flight_controller_manual_reference_delta</title>
<g id="a_edge15"><a xlink:title="/keyboard_control &#45;&gt; /flight_controller/manual_reference_delta&#10;Signal: manual reference">
<path fill="none" stroke="#6c757d" stroke-width="1.8" d="M1233.72,-183.41C1158.39,-183.41 1044.62,-183.41 1044.62,-183.41 1044.62,-183.41 1044.62,-266.28 1044.62,-266.28"/>
<polygon fill="#6c757d" stroke="#6c757d" stroke-width="1.8" points="1041.82,-266.28 1044.62,-274.28 1047.42,-266.28 1041.82,-266.28"/>
</a>
</g>
</g>
<!-- ros_node_keyboard_control&#45;&gt;ros_topic_flight_controller_emergency_stop -->
<g id="edge14" class="edge">
<title>ros_node_keyboard_control&#45;&gt;ros_topic_flight_controller_emergency_stop</title>
<g id="a_edge14"><a xlink:title="/keyboard_control &#45;&gt; /flight_controller/emergency_stop&#10;Signal: emergency stop">
<path fill="none" stroke="#6c757d" stroke-width="1.8" d="M1233.64,-147.79C1233.64,-147.79 1019.9,-147.79 1019.9,-147.79"/>
<polygon fill="#6c757d" stroke="#6c757d" stroke-width="1.8" points="1019.9,-144.99 1011.9,-147.79 1019.9,-150.59 1019.9,-144.99"/>
</a>
</g>
</g>
<!-- ros_node_static_transform_publisher_rWK277PnAnENlelW -->
<g id="node14" class="node">
<title>ros_node_static_transform_publisher_rWK277PnAnENlelW</title>
<polygon fill="#90caf9" stroke="#1565c0" points="1456.62,-604.6 1141.12,-604.6 1141.12,-548.6 1456.62,-548.6 1456.62,-604.6"/>
<text xml:space="preserve" text-anchor="start" x="1151.12" y="-589.15" font-family="DejaVu Sans" font-weight="bold" font-size="11.00">/static_transform_publisher_rWK277PnAnENlelW</text>
<text xml:space="preserve" text-anchor="start" x="1266.99" y="-572.55" font-family="DejaVu Sans" font-size="9.00">static TF node</text>
<text xml:space="preserve" text-anchor="start" x="1251.62" y="-557.3" font-family="DejaVu Sans" font-size="9.00" fill="#6c757d">static transforms out</text>
</g>
<!-- ros_node_static_transform_publisher_rWK277PnAnENlelW&#45;&gt;ros_topic_tf_static -->
<g id="edge17" class="edge">
<title>ros_node_static_transform_publisher_rWK277PnAnENlelW&#45;&gt;ros_topic_tf_static</title>
<g id="a_edge17"><a xlink:title="/static_transform_publisher_rWK277PnAnENlelW &#45;&gt; /tf_static&#10;Signal: static transforms">
<path fill="none" stroke="#6c757d" stroke-width="1.8" d="M1140.87,-576.6C1140.87,-576.6 973.33,-576.6 973.33,-576.6"/>
<polygon fill="#6c757d" stroke="#6c757d" stroke-width="1.8" points="973.33,-573.8 965.33,-576.6 973.33,-579.4 973.33,-573.8"/>
</a>
</g>
</g>
</g>
</svg>
