<?xml version="1.0" encoding="UTF-8" standalone="no"?>
<!DOCTYPE svg PUBLIC "-//W3C//DTD SVG 1.1//EN"
 "http://www.w3.org/Graphics/SVG/1.1/DTD/svg11.dtd">
<!-- Generated by graphviz version 14.1.2 (0)
 -->
<!-- Title: RosGzSystemGraph Pages: 1 -->
<svg width="1007pt" height="698pt"
 viewBox="0.00 0.00 1007.00 698.00" xmlns="http://www.w3.org/2000/svg" xmlns:xlink="http://www.w3.org/1999/xlink">
<style id="ros-gz-system-graph-hover-style" type="text/css"><![CDATA[
g.edge path,
g.edge polygon {
  cursor: help;
  pointer-events: visiblePainted;
  transition: stroke 120ms ease, fill 120ms ease, stroke-width 120ms ease, filter 120ms ease;
}

g.edge:hover path {
  stroke: #ff6d00 !important;
  stroke-width: 4px !important;
  filter: drop-shadow(0 0 4px rgba(255, 109, 0, 0.85));
}

g.edge:hover polygon {
  stroke: #ff6d00 !important;
  fill: #ff6d00 !important;
  filter: drop-shadow(0 0 4px rgba(255, 109, 0, 0.85));
}
]]></style>
<g id="graph0" class="graph" transform="scale(1 1) rotate(0) translate(14.4 683.15)">
<title>RosGzSystemGraph</title>
<polygon fill="white" stroke="none" points="-14.4,14.4 -14.4,-683.15 992.17,-683.15 992.17,14.4 -14.4,14.4"/>
<text xml:space="preserve" text-anchor="start" x="299.89" y="-646.65" font-family="DejaVu Sans" font-weight="bold" font-size="18.00">LIDAR Mapping Drone Runtime Graph</text>
<text xml:space="preserve" text-anchor="start" x="387.26" y="-623.7" font-family="DejaVu Sans" font-size="14.00">Gazebo + ROS 2 Debug View</text>
<polygon fill="#ffd166" stroke="none" points="299.89,-591 299.89,-615.75 427.14,-615.75 427.14,-591 299.89,-591"/>
<polygon fill="none" stroke="black" points="299.89,-591 299.89,-615.75 427.14,-615.75 427.14,-591 299.89,-591"/>
<text xml:space="preserve" text-anchor="start" x="342.89" y="-600.25" font-family="DejaVu Sans" font-size="10.00">GZ topic</text>
<polygon fill="#d0b3ff" stroke="none" points="427.14,-591 427.14,-615.75 544.64,-615.75 544.64,-591 427.14,-591"/>
<polygon fill="none" stroke="black" points="427.14,-591 427.14,-615.75 544.64,-615.75 544.64,-591 427.14,-591"/>
<text xml:space="preserve" text-anchor="start" x="470.14" y="-600.25" font-family="DejaVu Sans" font-size="10.00">Bridge</text>
<polygon fill="#b7e4c7" stroke="none" points="544.64,-591 544.64,-615.75 677.89,-615.75 677.89,-591 544.64,-591"/>
<polygon fill="none" stroke="black" points="544.64,-591 544.64,-615.75 677.89,-615.75 677.89,-591 544.64,-591"/>
<text xml:space="preserve" text-anchor="start" x="587.64" y="-600.25" font-family="DejaVu Sans" font-size="10.00">ROS topic</text>
<g id="clust1" class="cluster">
<title>cluster_gazebo</title>
<path fill="white" stroke="#f4a261" d="M20,-8C20,-8 341.51,-8 341.51,-8 347.51,-8 353.51,-14 353.51,-20 353.51,-20 353.51,-565 353.51,-565 353.51,-571 347.51,-577 341.51,-577 341.51,-577 20,-577 20,-577 14,-577 8,-571 8,-565 8,-565 8,-20 8,-20 8,-14 14,-8 20,-8"/>
<text xml:space="preserve" text-anchor="middle" x="180.76" y="-555.9" font-family="DejaVu Sans" font-size="18.00">Gazebo Transport</text>
</g>
<g id="clust2" class="cluster">
<title>cluster_bridge</title>
<path fill="white" stroke="#9d4edd" d="M410.51,-250C410.51,-250 567.26,-250 567.26,-250 573.26,-250 579.26,-256 579.26,-262 579.26,-262 579.26,-324 579.26,-324 579.26,-330 573.26,-336 567.26,-336 567.26,-336 410.51,-336 410.51,-336 404.51,-336 398.51,-330 398.51,-324 398.51,-324 398.51,-262 398.51,-262 398.51,-256 404.51,-250 410.51,-250"/>
<text xml:space="preserve" text-anchor="middle" x="488.89" y="-314.9" font-family="DejaVu Sans" font-size="18.00">Bridge</text>
</g>
<g id="clust3" class="cluster">
<title>cluster_ros_topics</title>
<path fill="white" stroke="#2d6a4f" d="M636.26,-8C636.26,-8 957.77,-8 957.77,-8 963.77,-8 969.77,-14 969.77,-20 969.77,-20 969.77,-565 969.77,-565 969.77,-571 963.77,-577 957.77,-577 957.77,-577 636.26,-577 636.26,-577 630.26,-577 624.26,-571 624.26,-565 624.26,-565 624.26,-20 624.26,-20 624.26,-14 630.26,-8 636.26,-8"/>
<text xml:space="preserve" text-anchor="middle" x="797.02" y="-555.9" font-family="DejaVu Sans" font-size="18.00">ROS 2 Topics</text>
</g>
<!-- gz_topic_X3_gazebo_command_motor_speed -->
<g id="node1" class="node">
<title>gz_topic_X3_gazebo_command_motor_speed</title>
<ellipse fill="#ffd166" stroke="#cc7a00" cx="180.76" cy="-56" rx="164.76" ry="39.6"/>
<text xml:space="preserve" text-anchor="start" x="74.26" y="-68.55" font-family="DejaVu Sans" font-weight="bold" font-size="11.00">/X3/gazebo/command/motor_speed</text>
<text xml:space="preserve" text-anchor="start" x="138.76" y="-51.95" font-family="DejaVu Sans" font-size="9.00">gz.msgs.Actuators</text>
<text xml:space="preserve" text-anchor="start" x="160.51" y="-36.7" font-family="DejaVu Sans" font-size="9.00" fill="#7b2cbf">bridge in</text>
</g>
<!-- gz_topic_lidar2 -->
<g id="node2" class="node">
<title>gz_topic_lidar2</title>
<ellipse fill="#ffd166" stroke="#cc7a00" cx="180.76" cy="-167" rx="75.66" ry="39.6"/>
<text xml:space="preserve" text-anchor="start" x="161.26" y="-179.55" font-family="DejaVu Sans" font-weight="bold" font-size="11.00">/lidar2</text>
<text xml:space="preserve" text-anchor="start" x="137.26" y="-162.95" font-family="DejaVu Sans" font-size="9.00">gz.msgs.LaserScan</text>
<text xml:space="preserve" text-anchor="start" x="157.13" y="-147.7" font-family="DejaVu Sans" font-size="9.00" fill="#7b2cbf">bridge out</text>
</g>
<!-- bridge_ros_gz_bridge -->
<g id="node6" class="node">
<title>bridge_ros_gz_bridge</title>
<polygon fill="#d0b3ff" stroke="#6a00a8" points="571.26,-298.38 406.51,-298.38 406.51,-257.62 571.26,-257.62 571.26,-298.38"/>
<text xml:space="preserve" text-anchor="start" x="416.51" y="-282.93" font-family="DejaVu Sans" font-weight="bold" font-size="11.00">ROS &lt;&#45;&gt; Gazebo Bridge</text>
<text xml:space="preserve" text-anchor="start" x="444.26" y="-266.32" font-family="DejaVu Sans" font-size="9.00" fill="#7b2cbf">bridge mappings: 5</text>
</g>
<!-- gz_topic_lidar2&#45;&gt;bridge_ros_gz_bridge -->
<g id="edge1" class="edge">
<title>gz_topic_lidar2&#45;&gt;bridge_ros_gz_bridge</title>
<g id="a_edge1"><a xlink:title="/lidar2 &#45;&gt; ROS &lt;&#45;&gt; Gazebo Bridge&#10;Signal: sensor data">
<path fill="none" stroke="#7b2cbf" stroke-width="1.8" d="M256.9,-167C348.11,-167 488.77,-167 488.77,-167 488.77,-167 488.77,-246.66 488.77,-246.66"/>
<polygon fill="#7b2cbf" stroke="#7b2cbf" stroke-width="1.8" points="485.97,-246.66 488.77,-254.66 491.57,-246.66 485.97,-246.66"/>
</a>
</g>
</g>
<!-- gz_topic_model_x3_lidar_pose -->
<g id="node3" class="node">
<title>gz_topic_model_x3_lidar_pose</title>
<ellipse fill="#ffd166" stroke="#cc7a00" cx="180.76" cy="-278" rx="102.71" ry="39.6"/>
<text xml:space="preserve" text-anchor="start" x="118.13" y="-290.55" font-family="DejaVu Sans" font-weight="bold" font-size="11.00">/model/x3_lidar/pose</text>
<text xml:space="preserve" text-anchor="start" x="145.13" y="-273.95" font-family="DejaVu Sans" font-size="9.00">gz.msgs.Pose_V</text>
<text xml:space="preserve" text-anchor="start" x="157.13" y="-258.7" font-family="DejaVu Sans" font-size="9.00" fill="#7b2cbf">bridge out</text>
</g>
<!-- gz_topic_model_x3_lidar_pose&#45;&gt;bridge_ros_gz_bridge -->
<g id="edge7" class="edge">
<title>gz_topic_model_x3_lidar_pose&#45;&gt;bridge_ros_gz_bridge</title>
<g id="a_edge7"><a xlink:title="/model/x3_lidar/pose &#45;&gt; ROS &lt;&#45;&gt; Gazebo Bridge&#10;Signal: pose feedback">
<path fill="none" stroke="#7b2cbf" stroke-width="1.8" d="M282.08,-284.79C282.08,-284.79 395.77,-284.79 395.77,-284.79"/>
<polygon fill="#7b2cbf" stroke="#7b2cbf" stroke-width="1.8" points="395.77,-287.59 403.77,-284.79 395.77,-281.99 395.77,-287.59"/>
</a>
</g>
</g>
<!-- gz_topic_x3_lidar_imu -->
<g id="node4" class="node">
<title>gz_topic_x3_lidar_imu</title>
<ellipse fill="#ffd166" stroke="#cc7a00" cx="180.76" cy="-389" rx="68.77" ry="39.6"/>
<text xml:space="preserve" text-anchor="start" x="142.13" y="-401.55" font-family="DejaVu Sans" font-weight="bold" font-size="11.00">/x3_lidar/imu</text>
<text xml:space="preserve" text-anchor="start" x="151.88" y="-384.95" font-family="DejaVu Sans" font-size="9.00">gz.msgs.IMU</text>
<text xml:space="preserve" text-anchor="start" x="157.13" y="-369.7" font-family="DejaVu Sans" font-size="9.00" fill="#7b2cbf">bridge out</text>
</g>
<!-- gz_topic_x3_lidar_imu&#45;&gt;bridge_ros_gz_bridge -->
<g id="edge3" class="edge">
<title>gz_topic_x3_lidar_imu&#45;&gt;bridge_ros_gz_bridge</title>
<g id="a_edge3"><a xlink:title="/x3_lidar/imu &#45;&gt; ROS &lt;&#45;&gt; Gazebo Bridge&#10;Signal: imu telemetry">
<path fill="none" stroke="#7b2cbf" stroke-width="1.8" d="M246.08,-402.2C325.13,-402.2 447.77,-402.2 447.77,-402.2 447.77,-402.2 447.77,-309.51 447.77,-309.51"/>
<polygon fill="#7b2cbf" stroke="#7b2cbf" stroke-width="1.8" points="450.57,-309.51 447.77,-301.51 444.97,-309.51 450.57,-309.51"/>
</a>
</g>
</g>
<!-- gz_topic_x3_lidar_range_down -->
<g id="node5" class="node">
<title>gz_topic_x3_lidar_range_down</title>
<ellipse fill="#ffd166" stroke="#cc7a00" cx="180.76" cy="-500" rx="103.77" ry="39.6"/>
<text xml:space="preserve" text-anchor="start" x="117.38" y="-512.55" font-family="DejaVu Sans" font-weight="bold" font-size="11.00">/x3_lidar/range/down</text>
<text xml:space="preserve" text-anchor="start" x="137.26" y="-495.95" font-family="DejaVu Sans" font-size="9.00">gz.msgs.LaserScan</text>
<text xml:space="preserve" text-anchor="start" x="157.13" y="-480.7" font-family="DejaVu Sans" font-size="9.00" fill="#7b2cbf">bridge out</text>
</g>
<!-- gz_topic_x3_lidar_range_down&#45;&gt;bridge_ros_gz_bridge -->
<g id="edge5" class="edge">
<title>gz_topic_x3_lidar_range_down&#45;&gt;bridge_ros_gz_bridge</title>
<g id="a_edge5"><a xlink:title="/x3_lidar/range/down &#45;&gt; ROS &lt;&#45;&gt; Gazebo Bridge&#10;Signal: downward range">
<path fill="none" stroke="#7b2cbf" stroke-width="1.8" d="M284.61,-500C374.03,-500 488.77,-500 488.77,-500 488.77,-500 488.77,-309.21 488.77,-309.21"/>
<polygon fill="#7b2cbf" stroke="#7b2cbf" stroke-width="1.8" points="491.57,-309.21 488.77,-301.21 485.97,-309.21 491.57,-309.21"/>
</a>
</g>
</g>
<!-- bridge_ros_gz_bridge&#45;&gt;gz_topic_X3_gazebo_command_motor_speed -->
<g id="edge10" class="edge">
<title>bridge_ros_gz_bridge&#45;&gt;gz_topic_X3_gazebo_command_motor_speed</title>
<g id="a_edge10"><a xlink:title="ROS &lt;&#45;&gt; Gazebo Bridge &#45;&gt; /X3/gazebo/command/motor_speed&#10;Signal: motor command">
<path fill="none" stroke="#7b2cbf" stroke-width="1.8" d="M406.16,-271.21C361.24,-271.21 314.77,-271.21 314.77,-271.21 314.77,-271.21 314.77,-90.17 314.77,-90.17"/>
<polygon fill="#7b2cbf" stroke="#7b2cbf" stroke-width="1.8" points="317.57,-90.17 314.77,-82.17 311.97,-90.17 317.57,-90.17"/>
</a>
</g>
</g>
<!-- ros_topic_laser_scan -->
<g id="node8" class="node">
<title>ros_topic_laser_scan</title>
<ellipse fill="#b7e4c7" stroke="#2d6a4f" cx="797.02" cy="-167" rx="105.89" ry="39.6"/>
<text xml:space="preserve" text-anchor="start" x="762.89" y="-179.55" font-family="DejaVu Sans" font-weight="bold" font-size="11.00">/laser_scan</text>
<text xml:space="preserve" text-anchor="start" x="732.14" y="-162.95" font-family="DejaVu Sans" font-size="9.00">sensor_msgs/msg/LaserScan</text>
<text xml:space="preserve" text-anchor="start" x="776.77" y="-147.7" font-family="DejaVu Sans" font-size="9.00" fill="#7b2cbf">bridge in</text>
</g>
<!-- bridge_ros_gz_bridge&#45;&gt;ros_topic_laser_scan -->
<g id="edge2" class="edge">
<title>bridge_ros_gz_bridge&#45;&gt;ros_topic_laser_scan</title>
<g id="a_edge2"><a xlink:title="ROS &lt;&#45;&gt; Gazebo Bridge &#45;&gt; /laser_scan&#10;Signal: sensor data">
<path fill="none" stroke="#7b2cbf" stroke-width="1.8" d="M571.54,-273.93C630.27,-273.93 698.77,-273.93 698.77,-273.93 698.77,-273.93 698.77,-193.04 698.77,-193.04"/>
<polygon fill="#7b2cbf" stroke="#7b2cbf" stroke-width="1.8" points="701.57,-193.04 698.77,-185.04 695.97,-193.04 701.57,-193.04"/>
</a>
</g>
</g>
<!-- ros_topic_tf -->
<g id="node9" class="node">
<title>ros_topic_tf</title>
<ellipse fill="#b7e4c7" stroke="#2d6a4f" cx="797.02" cy="-278" rx="95.81" ry="39.6"/>
<text xml:space="preserve" text-anchor="start" x="790.27" y="-290.55" font-family="DejaVu Sans" font-weight="bold" font-size="11.00">/tf</text>
<text xml:space="preserve" text-anchor="start" x="739.27" y="-273.95" font-family="DejaVu Sans" font-size="9.00">tf2_msgs/msg/TFMessage</text>
<text xml:space="preserve" text-anchor="start" x="776.77" y="-258.7" font-family="DejaVu Sans" font-size="9.00" fill="#7b2cbf">bridge in</text>
</g>
<!-- bridge_ros_gz_bridge&#45;&gt;ros_topic_tf -->
<g id="edge8" class="edge">
<title>bridge_ros_gz_bridge&#45;&gt;ros_topic_tf</title>
<g id="a_edge8"><a xlink:title="ROS &lt;&#45;&gt; Gazebo Bridge &#45;&gt; /tf&#10;Signal: pose feedback">
<path fill="none" stroke="#7b2cbf" stroke-width="1.8" d="M571.46,-282.07C571.46,-282.07 690.66,-282.07 690.66,-282.07"/>
<polygon fill="#7b2cbf" stroke="#7b2cbf" stroke-width="1.8" points="690.66,-284.88 698.66,-282.08 690.66,-279.28 690.66,-284.88"/>
</a>
</g>
</g>
<!-- ros_topic_x3_lidar_imu -->
<g id="node10" class="node">
<title>ros_topic_x3_lidar_imu</title>
<ellipse fill="#b7e4c7" stroke="#2d6a4f" cx="797.02" cy="-389" rx="85.74" ry="39.6"/>
<text xml:space="preserve" text-anchor="start" x="758.39" y="-401.55" font-family="DejaVu Sans" font-weight="bold" font-size="11.00">/x3_lidar/imu</text>
<text xml:space="preserve" text-anchor="start" x="746.39" y="-384.95" font-family="DejaVu Sans" font-size="9.00">sensor_msgs/msg/Imu</text>
<text xml:space="preserve" text-anchor="start" x="776.77" y="-369.7" font-family="DejaVu Sans" font-size="9.00" fill="#7b2cbf">bridge in</text>
</g>
<!-- bridge_ros_gz_bridge&#45;&gt;ros_topic_x3_lidar_imu -->
<g id="edge4" class="edge">
<title>bridge_ros_gz_bridge&#45;&gt;ros_topic_x3_lidar_imu</title>
<g id="a_edge4"><a xlink:title="ROS &lt;&#45;&gt; Gazebo Bridge &#45;&gt; /x3_lidar/imu&#10;Signal: imu telemetry">
<path fill="none" stroke="#7b2cbf" stroke-width="1.8" d="M529.77,-298.74C529.77,-327.45 529.77,-375.8 529.77,-375.8 529.77,-375.8 705.02,-375.8 705.02,-375.8"/>
<polygon fill="#7b2cbf" stroke="#7b2cbf" stroke-width="1.8" points="705.02,-378.6 713.02,-375.8 705.02,-373 705.02,-378.6"/>
</a>
</g>
</g>
<!-- ros_topic_x3_lidar_range_down -->
<g id="node11" class="node">
<title>ros_topic_x3_lidar_range_down</title>
<ellipse fill="#b7e4c7" stroke="#2d6a4f" cx="797.02" cy="-500" rx="103.77" ry="39.6"/>
<text xml:space="preserve" text-anchor="start" x="733.64" y="-512.55" font-family="DejaVu Sans" font-weight="bold" font-size="11.00">/x3_lidar/range/down</text>
<text xml:space="preserve" text-anchor="start" x="741.14" y="-495.95" font-family="DejaVu Sans" font-size="9.00">sensor_msgs/msg/Range</text>
<text xml:space="preserve" text-anchor="start" x="776.77" y="-480.7" font-family="DejaVu Sans" font-size="9.00" fill="#7b2cbf">bridge in</text>
</g>
<!-- bridge_ros_gz_bridge&#45;&gt;ros_topic_x3_lidar_range_down -->
<g id="edge6" class="edge">
<title>bridge_ros_gz_bridge&#45;&gt;ros_topic_x3_lidar_range_down</title>
<g id="a_edge6"><a xlink:title="ROS &lt;&#45;&gt; Gazebo Bridge &#45;&gt; /x3_lidar/range/down&#10;Signal: downward range">
<path fill="none" stroke="#7b2cbf" stroke-width="1.8" d="M571.55,-290.23C629.17,-290.23 695.77,-290.23 695.77,-290.23 695.77,-290.23 695.77,-479.72 695.77,-479.72"/>
<polygon fill="#7b2cbf" stroke="#7b2cbf" stroke-width="1.8" points="692.97,-479.72 695.77,-487.72 698.57,-479.72 692.97,-479.72"/>
</a>
</g>
</g>
<!-- ros_topic_X3_gazebo_command_motor_speed -->
<g id="node7" class="node">
<title>ros_topic_X3_gazebo_command_motor_speed</title>
<ellipse fill="#b7e4c7" stroke="#2d6a4f" cx="797.02" cy="-56" rx="164.76" ry="39.6"/>
<text xml:space="preserve" text-anchor="start" x="690.52" y="-68.55" font-family="DejaVu Sans" font-weight="bold" font-size="11.00">/X3/gazebo/command/motor_speed</text>
<text xml:space="preserve" text-anchor="start" x="729.14" y="-51.95" font-family="DejaVu Sans" font-size="9.00">actuator_msgs/msg/Actuators</text>
<text xml:space="preserve" text-anchor="start" x="773.39" y="-36.7" font-family="DejaVu Sans" font-size="9.00" fill="#7b2cbf">bridge out</text>
</g>
<!-- ros_topic_X3_gazebo_command_motor_speed&#45;&gt;bridge_ros_gz_bridge -->
<g id="edge9" class="edge">
<title>ros_topic_X3_gazebo_command_motor_speed&#45;&gt;bridge_ros_gz_bridge</title>
<g id="a_edge9"><a xlink:title="/X3/gazebo/command/motor_speed &#45;&gt; ROS &lt;&#45;&gt; Gazebo Bridge&#10;Signal: motor command">
<path fill="none" stroke="#7b2cbf" stroke-width="1.8" d="M661.77,-78.85C661.77,-133.22 661.77,-265.77 661.77,-265.77 661.77,-265.77 582.26,-265.77 582.26,-265.77"/>
<polygon fill="#7b2cbf" stroke="#7b2cbf" stroke-width="1.8" points="582.26,-262.98 574.26,-265.78 582.26,-268.58 582.26,-262.98"/>
</a>
</g>
</g>
</g>
</svg>
